<svg version="1.1" xmlns="http://www.w3.org/2000/svg" viewBox="0 0 170.79748911302534 149.54271453261373" width="170.79748911302534" height="149.54271453261373"><!-- svg-source:excalidraw --><metadata><!-- payload-type:application/vnd.excalidraw+json --><!-- payload-version:2 --><!-- payload-start -->eyJ2ZXJzaW9uIjoiMSIsImVuY29kaW5nIjoiYnN0cmluZyIsImNvbXByZXNzZWQiOnRydWUsImVuY29kZWQiOiJ4nH1TTW+jMFx1MDAxML3zK1x1MDAxML12Wz5cdTAwMDIhvW3TXHUwMDFlstKuVsphV1r14OApWFx1MDAxONuynZC0yn9f26GYZduChJg38zxcdTAwMWZ+81x1MDAxYYRhpE9cdTAwMDKiuzCCY4UowVx1MDAxMvXRtcVcdTAwMGYgXHUwMDE14cy4UmcrvpeVi2y0XHUwMDE26u72XHUwMDE2XHRxU1x1MDAxM73jvL2peHehXHUwMDAxhVx1MDAwZZhWJvCPscPw1X2Nh2BL3qijzlx1MDAxYfw7/3JYp8u2I+uXh2+O6oLeqkFS8t7DR4Nli3S0T9ZOk9HuXHTWjcGSxGNccpC60Vx1MDAwNizLXHUwMDExQ6ym9vx4RJSWvIU1p1xc2rxXXHTY12feoaqtJd8zPMZoiZhcdTAwMTJImjZ93DOhdKtP7nQzKzPJaJbj11BjOsM/YpmkdcNA2VH6rrhAXHUwMDE10bb/JPZd2FxuxVx1MDAwNrupP/maJOpgY8fO9pSOMGFcdTAwMTiObsjxP9lcdTAwMThcdTAwMWWyvV2Zv490QM6+dlx1MDAwMHtwkq+W6aIscl+hXHUwMDE3TrKcgz84c1x1MDAxYcrKVVFcdTAwMTSr0rOIejDS0e7QZ0RcdTAwMTX4XHUwMDFisJU9TmTlXHUwMDFi3Fx1MDAwYowulGRZZnlcXOZxtoiL0U9cdGvn3VNete9kXHUwMDExnExVa1x1MDAxZv9cdTAwMTd6wThj/H+6fjd6XCJD+5SlJ1x1MDAwNDNiRJHSa951RJtOftoq5lx1MDAxNSuNpL43t0ZYPfdcdTAwMDHDXHUwMDFmeFx1MDAxY+urXaNcdTAwMDbQf1x1MDAxYTC8qW++b0B3vPdTcvA5XHUwMDE4yo7M4m+1XHUwMDE5/ChcdTAwMTWjP4K35MVJZVx1MDAxONVcdTAwMDXTIFxmlk+g71x1MDAxY8MjQzs6v4ToQKC//3zdgkGCdt3ASfVcdTAwMWOc/1x1MDAwMu9hNiEifQ==<!-- payload-end --></metadata><defs><style class="style-fonts">
      </style></defs><rect x="0" y="0" width="170.79748911302534" height="149.54271453261373" fill="transparent"/><g stroke-linecap="round"><g transform="translate(30.148454118557254 29.748756878189738) rotate(0 55.5 44)"><path d="M0.86 0.85 C19.16 15.39, 92.15 73.7, 110.65 88.17 M-0.15 0.25 C17.89 14.93, 90.9 75.03, 109.52 89.79" stroke="#1e1e1e" stroke-width="2" fill="none"/></g><g transform="translate(30.148454118557254 29.748756878189738) rotate(0 55.5 44)"><path d="M85.88 81.65 C96.12 83.91, 103.74 88.93, 109.52 89.79 M85.88 81.65 C92.38 83.23, 97.87 85.36, 109.52 89.79" stroke="#1e1e1e" stroke-width="2" fill="none"/></g><g transform="translate(30.148454118557254 29.748756878189738) rotate(0 55.5 44)"><path d="M96.64 68.36 C102.99 75.63, 106.63 85.57, 109.52 89.79 M96.64 68.36 C100.25 73.66, 102.8 79.42, 109.52 89.79" stroke="#1e1e1e" stroke-width="2" fill="none"/></g></g><mask/></svg>